<?xml version="1.0" encoding="UTF-8"?>
<svg width="1771px" height="1044px" viewBox="0 0 1771 1044" version="1.1" xmlns="http://www.w3.org/2000/svg" xmlns:xlink="http://www.w3.org/1999/xlink">
    <!-- Generator: Sketch 48.2 (47327) - http://www.bohemiancoding.com/sketch -->
    <title>hero-pattern.02f57cc9</title>
    <desc>Created with Sketch.</desc>
    <defs></defs>
    <g id="Page-1" stroke="none" stroke-width="1" fill="none" fill-rule="evenodd" fill-opacity="0.03">
        <g id="hero-pattern.02f57cc9" transform="translate(-1.000000, -1.000000)" fill="#000000" fill-rule="nonzero">
            <path d="M1488.37457,4.30936507 L1571.38258,170.325383 C1572.86452,173.289254 1571.66317,176.893292 1568.6993,178.375228 C1567.86617,178.791794 1566.94749,179.008665 1566.01602,179.008665 L1400,179.008665 C1396.68629,179.008665 1394,176.322373 1394,173.008665 C1394,172.077194 1394.21687,171.158516 1394.63344,170.325383 L1477.64145,4.30936507 C1479.12338,1.34549409 1482.72742,0.144148012 1485.69129,1.6260835 C1486.85245,2.20666571 1487.79399,3.14820066 1488.37457,4.30936507 Z" id="Triangle" transform="translate(1483.008665, 89.999999) rotate(90.000000) translate(-1483.008665, -89.999999) "></path>
            <path d="M1295.35724,4.309368 L1378.36525,170.325386 C1379.84718,173.289257 1378.64584,176.893295 1375.68197,178.375231 C1374.84883,178.791797 1373.93016,179.008668 1372.99869,179.008668 L1206.98267,179.008668 C1203.66896,179.008668 1200.98267,176.322376 1200.98267,173.008668 C1200.98267,172.077197 1201.19954,171.158519 1201.6161,170.325386 L1284.62411,4.309368 C1286.10605,1.34549701 1289.71009,0.144150927 1292.67396,1.62608642 C1293.83512,2.20666863 1294.77666,3.14820358 1295.35724,4.309368 Z" id="Triangle" transform="translate(1289.991334, 90.000002) rotate(-90.000000) translate(-1289.991334, -90.000002) "></path>
            <path d="M1288.37457,112.309365 L1371.38258,278.325383 C1372.86452,281.289254 1371.66317,284.893292 1368.6993,286.375228 C1367.86617,286.791794 1366.94749,287.008665 1366.01602,287.008665 L1200,287.008665 C1196.68629,287.008665 1194,284.322373 1194,281.008665 C1194,280.077194 1194.21687,279.158516 1194.63344,278.325383 L1277.64145,112.309365 C1279.12338,109.345494 1282.72742,108.144148 1285.69129,109.626084 C1286.85245,110.206666 1287.79399,111.148201 1288.37457,112.309365 Z" id="Triangle" transform="translate(1283.008665, 197.999999) rotate(90.000000) translate(-1283.008665, -197.999999) "></path>
            <path d="M1288.37457,328.318034 L1371.38258,494.334052 C1372.86452,497.297923 1371.66317,500.901961 1368.6993,502.383896 C1367.86617,502.800463 1366.94749,503.017333 1366.01602,503.017333 L1200,503.017333 C1196.68629,503.017333 1194,500.331042 1194,497.017333 C1194,496.085863 1194.21687,495.167184 1194.63344,494.334052 L1277.64145,328.318034 C1279.12338,325.354163 1282.72742,324.152817 1285.69129,325.634752 C1286.85245,326.215334 1287.79399,327.156869 1288.37457,328.318034 Z" id="Triangle-Copy" transform="translate(1283.008666, 414.008667) rotate(90.000000) translate(-1283.008666, -414.008667) "></path>
            <path d="M1688.37457,328.318034 L1771.38258,494.334052 C1772.86452,497.297923 1771.66317,500.901961 1768.6993,502.383896 C1767.86617,502.800463 1766.94749,503.017333 1766.01602,503.017333 L1600,503.017333 C1596.68629,503.017333 1594,500.331042 1594,497.017333 C1594,496.085863 1594.21687,495.167184 1594.63344,494.334052 L1677.64145,328.318034 C1679.12338,325.354163 1682.72742,324.152817 1685.69129,325.634752 C1686.85245,326.215334 1687.79399,327.156869 1688.37457,328.318034 Z" id="Triangle-Copy-5" transform="translate(1683.008666, 414.008667) rotate(90.000000) translate(-1683.008666, -414.008667) "></path>
            <path d="M1095.35724,112.309368 L1178.36525,278.325386 C1179.84718,281.289257 1178.64584,284.893295 1175.68197,286.375231 C1174.84883,286.791797 1173.93016,287.008668 1172.99869,287.008668 L1006.98267,287.008668 C1003.66896,287.008668 1000.98267,284.322376 1000.98267,281.008668 C1000.98267,280.077197 1001.19954,279.158519 1001.6161,278.325386 L1084.62411,112.309368 C1086.10605,109.345497 1089.71009,108.144151 1092.67396,109.626087 C1093.83512,110.206669 1094.77666,111.148204 1095.35724,112.309368 Z" id="Triangle" transform="translate(1089.991334, 198.000002) rotate(-90.000000) translate(-1089.991334, -198.000002) "></path>
            <path d="M1095.35724,328.309368 L1178.36525,494.325386 C1179.84718,497.289257 1178.64584,500.893295 1175.68197,502.375231 C1174.84883,502.791797 1173.93016,503.008668 1172.99869,503.008668 L1006.98267,503.008668 C1003.66896,503.008668 1000.98267,500.322376 1000.98267,497.008668 C1000.98267,496.077197 1001.19954,495.158519 1001.6161,494.325386 L1084.62411,328.309368 C1086.10605,325.345497 1089.71009,324.144151 1092.67396,325.626087 C1093.83512,326.206669 1094.77666,327.148204 1095.35724,328.309368 Z" id="Triangle-Copy-2" transform="translate(1089.991334, 414.000002) rotate(-90.000000) translate(-1089.991334, -414.000002) "></path>
            <path d="M895.35724,436.309368 L978.365249,602.325386 C979.847184,605.289257 978.645838,608.893295 975.681967,610.375231 C974.848835,610.791797 973.930156,611.008668 972.998686,611.008668 L806.982668,611.008668 C803.668959,611.008668 800.982668,608.322376 800.982668,605.008668 C800.982668,604.077197 801.199538,603.158519 801.616105,602.325386 L884.624114,436.309368 C886.106049,433.345497 889.710087,432.144151 892.673958,433.626087 C893.835123,434.206669 894.776658,435.148204 895.35724,436.309368 Z" id="Triangle-Copy-2" transform="translate(889.991334, 522.000002) rotate(-90.000000) translate(-889.991334, -522.000002) "></path>
            <path d="M1288.37457,544.309365 L1371.38258,710.325383 C1372.86452,713.289254 1371.66317,716.893292 1368.6993,718.375228 C1367.86617,718.791794 1366.94749,719.008665 1366.01602,719.008665 L1200,719.008665 C1196.68629,719.008665 1194,716.322373 1194,713.008665 C1194,712.077194 1194.21687,711.158516 1194.63344,710.325383 L1277.64145,544.309365 C1279.12338,541.345494 1282.72742,540.144148 1285.69129,541.626084 C1286.85245,542.206666 1287.79399,543.148201 1288.37457,544.309365 Z" id="Triangle-Copy" transform="translate(1283.008665, 629.999999) rotate(90.000000) translate(-1283.008665, -629.999999) "></path>
            <path d="M1095.35724,544.309368 L1178.36525,710.325386 C1179.84718,713.289257 1178.64584,716.893295 1175.68197,718.375231 C1174.84883,718.791797 1173.93016,719.008668 1172.99869,719.008668 L1006.98267,719.008668 C1003.66896,719.008668 1000.98267,716.322376 1000.98267,713.008668 C1000.98267,712.077197 1001.19954,711.158519 1001.6161,710.325386 L1084.62411,544.309368 C1086.10605,541.345497 1089.71009,540.144151 1092.67396,541.626087 C1093.83512,542.206669 1094.77666,543.148204 1095.35724,544.309368 Z" id="Triangle-Copy-2" transform="translate(1089.991334, 630.000002) rotate(-90.000000) translate(-1089.991334, -630.000002) "></path>
            <path d="M888.374571,328.309365 L971.38258,494.325383 C972.864516,497.289254 971.66317,500.893292 968.699299,502.375228 C967.866166,502.791794 966.947488,503.008665 966.016017,503.008665 L799.999999,503.008665 C796.686291,503.008665 793.999999,500.322373 793.999999,497.008665 C793.999999,496.077194 794.21687,495.158516 794.633436,494.325383 L877.641445,328.309365 C879.12338,325.345494 882.727419,324.144148 885.69129,325.626084 C886.852454,326.206666 887.793989,327.148201 888.374571,328.309365 Z" id="Triangle-Copy" transform="translate(883.008665, 413.999998) rotate(90.000000) translate(-883.008665, -413.999998) "></path>
            <path d="M888.374571,544.309365 L971.38258,710.325383 C972.864516,713.289254 971.66317,716.893292 968.699299,718.375228 C967.866166,718.791794 966.947488,719.008665 966.016017,719.008665 L799.999999,719.008665 C796.686291,719.008665 793.999999,716.322373 793.999999,713.008665 C793.999999,712.077194 794.21687,711.158516 794.633436,710.325383 L877.641445,544.309365 C879.12338,541.345494 882.727419,540.144148 885.69129,541.626084 C886.852454,542.206666 887.793989,543.148201 888.374571,544.309365 Z" id="Triangle-Copy-3" transform="translate(883.008665, 629.999998) rotate(90.000000) translate(-883.008665, -629.999998) "></path>
            <path d="M688.374571,652.309365 L771.38258,818.325383 C772.864516,821.289254 771.66317,824.893292 768.699299,826.375228 C767.866166,826.791794 766.947488,827.008665 766.016017,827.008665 L599.999999,827.008665 C596.686291,827.008665 593.999999,824.322373 593.999999,821.008665 C593.999999,820.077194 594.21687,819.158516 594.633436,818.325383 L677.641445,652.309365 C679.12338,649.345494 682.727419,648.144148 685.69129,649.626084 C686.852454,650.206666 687.793989,651.148201 688.374571,652.309365 Z" id="Triangle-Copy-3" transform="translate(683.008665, 737.999998) rotate(90.000000) translate(-683.008665, -737.999998) "></path>
            <path d="M495.35724,652.309368 L578.365249,818.325386 C579.847184,821.289257 578.645838,824.893295 575.681967,826.375231 C574.848835,826.791797 573.930156,827.008668 572.998686,827.008668 L406.982668,827.008668 C403.668959,827.008668 400.982668,824.322376 400.982668,821.008668 C400.982668,820.077197 401.199538,819.158519 401.616105,818.325386 L484.624114,652.309368 C486.106049,649.345497 489.710087,648.144151 492.673958,649.626087 C493.835123,650.206669 494.776658,651.148204 495.35724,652.309368 Z" id="Triangle-Copy-4" transform="translate(489.991334, 738.000002) rotate(-90.000000) translate(-489.991334, -738.000002) "></path>
            <path d="M888.374572,760.318033 L971.382581,926.334051 C972.864517,929.297922 971.663171,932.90196 968.6993,934.383895 C967.866167,934.800462 966.947489,935.017332 966.016018,935.017332 L800,935.017332 C796.686292,935.017332 794,932.331041 794,929.017332 C794,928.085862 794.216871,927.167183 794.633437,926.334051 L877.641446,760.318033 C879.123381,757.354162 882.72742,756.152816 885.691291,757.634751 C886.852455,758.215333 887.79399,759.156868 888.374572,760.318033 Z" id="Triangle-Copy-3" transform="translate(883.008666, 846.008666) rotate(90.000000) translate(-883.008666, -846.008666) "></path>
            <path d="M488.374572,760.318033 L571.382581,926.334051 C572.864517,929.297922 571.663171,932.90196 568.6993,934.383895 C567.866167,934.800462 566.947489,935.017332 566.016018,935.017332 L400,935.017332 C396.686292,935.017332 394,932.331041 394,929.017332 C394,928.085862 394.216871,927.167183 394.633437,926.334051 L477.641446,760.318033 C479.123381,757.354162 482.72742,756.152816 485.691291,757.634751 C486.852455,758.215333 487.79399,759.156868 488.374572,760.318033 Z" id="Triangle-Copy-7" transform="translate(483.008666, 846.008666) rotate(90.000000) translate(-483.008666, -846.008666) "></path>
            <path d="M287.8954,868.297203 L371.424236,1035.35487 C372.906172,1038.31874 371.704826,1041.92278 368.740955,1043.40472 C367.907822,1043.82128 366.989144,1044.03815 366.057673,1044.03815 L199.000001,1044.03815 C195.686293,1044.03815 193.000001,1041.35186 193.000001,1038.03815 C193.000001,1037.10668 193.216872,1036.188 193.633438,1035.35487 L277.162274,868.297203 C278.64421,865.333332 282.248248,864.131986 285.212119,865.613921 C286.373283,866.194504 287.314818,867.136039 287.8954,868.297203 Z" id="Triangle-Copy-8" transform="translate(282.529494, 954.508662) rotate(90.000000) translate(-282.529494, -954.508662) "></path>
            <path d="M695.374572,760.318033 L778.382581,926.334051 C779.864517,929.297922 778.663171,932.90196 775.6993,934.383895 C774.866167,934.800462 773.947489,935.017332 773.016018,935.017332 L607,935.017332 C603.686292,935.017332 601,932.331041 601,929.017332 C601,928.085862 601.216871,927.167183 601.633437,926.334051 L684.641446,760.318033 C686.123381,757.354162 689.72742,756.152816 692.691291,757.634751 C693.852455,758.215333 694.79399,759.156868 695.374572,760.318033 Z" id="Triangle-Copy-4" transform="translate(690.008666, 846.008666) rotate(-90.000000) translate(-690.008666, -846.008666) "></path>
            <path d="M295.374572,760.318033 L378.382581,926.334051 C379.864517,929.297922 378.663171,932.90196 375.6993,934.383895 C374.866167,934.800462 373.947489,935.017332 373.016018,935.017332 L207,935.017332 C203.686292,935.017332 201,932.331041 201,929.017332 C201,928.085862 201.216871,927.167183 201.633437,926.334051 L284.641446,760.318033 C286.123381,757.354162 289.72742,756.152816 292.691291,757.634751 C293.852455,758.215333 294.79399,759.156868 295.374572,760.318033 Z" id="Triangle-Copy-4" transform="translate(290.008666, 846.008666) rotate(-90.000000) translate(-290.008666, -846.008666) "></path>
            <path d="M1295.35724,436.318032 L1378.36525,602.33405 C1379.84718,605.297921 1378.64584,608.901959 1375.68197,610.383894 C1374.84883,610.800461 1373.93016,611.017331 1372.99869,611.017331 L1206.98267,611.017331 C1203.66896,611.017331 1200.98267,608.33104 1200.98267,605.017331 C1200.98267,604.085861 1201.19954,603.167182 1201.6161,602.33405 L1284.62411,436.318032 C1286.10605,433.354161 1289.71009,432.152815 1292.67396,433.63475 C1293.83512,434.215332 1294.77666,435.156867 1295.35724,436.318032 Z" id="Triangle-Copy-9" transform="translate(1289.991334, 522.008666) rotate(-90.000000) translate(-1289.991334, -522.008666) "></path>
            <path d="M288.374572,652.318033 L371.382581,818.334051 C372.864517,821.297922 371.663171,824.90196 368.6993,826.383895 C367.866167,826.800462 366.947489,827.017332 366.016018,827.017332 L200,827.017332 C196.686292,827.017332 194,824.331041 194,821.017332 C194,820.085862 194.216871,819.167183 194.633437,818.334051 L277.641446,652.318033 C279.123381,649.354162 282.72742,648.152816 285.691291,649.634751 C286.852455,650.215333 287.79399,651.156868 288.374572,652.318033 Z" id="Triangle-Copy-3" transform="translate(283.008666, 738.008666) rotate(90.000000) translate(-283.008666, -738.008666) "></path>
            <path d="M95.3572401,652.318033 L178.365249,818.334051 C179.847184,821.297922 178.645838,824.90196 175.681967,826.383895 C174.848835,826.800462 173.930156,827.017332 172.998686,827.017332 L6.98266795,827.017332 C3.66895945,827.017332 0.98266795,824.331041 0.98266795,821.017332 C0.98266795,820.085862 1.1995385,819.167183 1.6161048,818.334051 L84.6241138,652.318033 C86.1060493,649.354162 89.7100876,648.152816 92.6739585,649.634751 C93.835123,650.215333 94.7766579,651.156868 95.3572401,652.318033 Z" id="Triangle-Copy-4" transform="translate(89.991334, 738.008666) rotate(-90.000000) translate(-89.991334, -738.008666) "></path>
            <path d="M488.374571,544.309365 L571.38258,710.325383 C572.864516,713.289254 571.66317,716.893292 568.699299,718.375228 C567.866166,718.791794 566.947488,719.008665 566.016017,719.008665 L399.999999,719.008665 C396.686291,719.008665 393.999999,716.322373 393.999999,713.008665 C393.999999,712.077194 394.21687,711.158516 394.633436,710.325383 L477.641445,544.309365 C479.12338,541.345494 482.727419,540.144148 485.69129,541.626084 C486.852454,542.206666 487.793989,543.148201 488.374571,544.309365 Z" id="Triangle-Copy-3" transform="translate(483.008665, 629.999998) rotate(90.000000) translate(-483.008665, -629.999998) "></path>
            <path d="M1488.37457,220.309365 L1571.38258,386.325383 C1572.86452,389.289254 1571.66317,392.893292 1568.6993,394.375228 C1567.86617,394.791794 1566.94749,395.008665 1566.01602,395.008665 L1400,395.008665 C1396.68629,395.008665 1394,392.322373 1394,389.008665 C1394,388.077194 1394.21687,387.158516 1394.63344,386.325383 L1477.64145,220.309365 C1479.12338,217.345494 1482.72742,216.144148 1485.69129,217.626084 C1486.85245,218.206666 1487.79399,219.148201 1488.37457,220.309365 Z" id="Triangle" transform="translate(1483.008665, 305.999999) rotate(90.000000) translate(-1483.008665, -305.999999) "></path>
            <path d="M1295.35724,220.309368 L1378.36525,386.325386 C1379.84718,389.289257 1378.64584,392.893295 1375.68197,394.375231 C1374.84883,394.791797 1373.93016,395.008668 1372.99869,395.008668 L1206.98267,395.008668 C1203.66896,395.008668 1200.98267,392.322376 1200.98267,389.008668 C1200.98267,388.077197 1201.19954,387.158519 1201.6161,386.325386 L1284.62411,220.309368 C1286.10605,217.345497 1289.71009,216.144151 1292.67396,217.626087 C1293.83512,218.206669 1294.77666,219.148204 1295.35724,220.309368 Z" id="Triangle" transform="translate(1289.991334, 306.000002) rotate(-90.000000) translate(-1289.991334, -306.000002) "></path>
            <path d="M688.374572,436.318033 L771.382581,602.334051 C772.864517,605.297922 771.663171,608.90196 768.6993,610.383895 C767.866167,610.800462 766.947489,611.017332 766.016018,611.017332 L600,611.017332 C596.686292,611.017332 594,608.331041 594,605.017332 C594,604.085862 594.216871,603.167183 594.633437,602.334051 L677.641446,436.318033 C679.123381,433.354162 682.72742,432.152816 685.691291,433.634751 C686.852455,434.215333 687.79399,435.156868 688.374572,436.318033 Z" id="Triangle-Copy" transform="translate(683.008666, 522.008666) rotate(90.000000) translate(-683.008666, -522.008666) "></path>
            <path d="M695.374572,328.318033 L778.382581,494.334051 C779.864517,497.297922 778.663171,500.90196 775.6993,502.383895 C774.866167,502.800462 773.947489,503.017332 773.016018,503.017332 L607,503.017332 C603.686292,503.017332 601,500.331041 601,497.017332 C601,496.085862 601.216871,495.167183 601.633437,494.334051 L684.641446,328.318033 C686.123381,325.354162 689.72742,324.152816 692.691291,325.634751 C693.852455,326.215333 694.79399,327.156868 695.374572,328.318033 Z" id="Triangle" transform="translate(690.008666, 414.008666) rotate(-90.000000) translate(-690.008666, -414.008666) "></path>
            <path d="M1495.35724,328.309368 L1578.36525,494.325386 C1579.84718,497.289257 1578.64584,500.893295 1575.68197,502.375231 C1574.84883,502.791797 1573.93016,503.008668 1572.99869,503.008668 L1406.98267,503.008668 C1403.66896,503.008668 1400.98267,500.322376 1400.98267,497.008668 C1400.98267,496.077197 1401.19954,495.158519 1401.6161,494.325386 L1484.62411,328.309368 C1486.10605,325.345497 1489.71009,324.144151 1492.67396,325.626087 C1493.83512,326.206669 1494.77666,327.148204 1495.35724,328.309368 Z" id="Triangle" transform="translate(1489.991334, 414.000002) rotate(-90.000000) translate(-1489.991334, -414.000002) "></path>
        </g>
    </g>
</svg>