<?xml version="1.0" standalone="no"?>
<!DOCTYPE svg PUBLIC "-//W3C//DTD SVG 20010904//EN"
 "http://www.w3.org/TR/2001/REC-SVG-20010904/DTD/svg10.dtd">
<svg version="1.0" xmlns="http://www.w3.org/2000/svg"
 width="512.000000pt" height="512.000000pt" viewBox="0 0 512.000000 512.000000"
 preserveAspectRatio="xMidYMid meet">
<metadata>
Created by potrace 1.11, written by Peter Selinger 2001-2013
</metadata>
<g transform="translate(0.000000,512.000000) scale(0.100000,-0.100000)"
fill="#000000" stroke="none">
<path d="M0 2560 l0 -2560 2560 0 2560 0 0 2560 0 2560 -2560 0 -2560 0 0
-2560z m1144 1525 c154 -404 282 -735 285 -735 3 0 133 330 288 733 l282 732
285 3 286 2 0 -1060 0 -1060 -180 0 -180 0 -2 881 -3 881 -321 -878 -321 -879
-134 0 -134 0 -320 876 -320 876 -3 -878 -2 -879 -180 0 -180 0 0 1060 0 1060
288 0 287 0 279 -735z m2358 23 c4 -657 5 -717 22 -768 55 -167 148 -265 297
-311 73 -23 229 -26 304 -5 146 39 251 139 307 296 l23 65 3 718 3 717 190 0
190 0 -4 -732 c-3 -653 -6 -741 -21 -808 -70 -302 -274 -513 -578 -601 -92
-26 -310 -37 -418 -20 -295 46 -543 240 -637 499 -52 142 -53 159 -53 938 l0
724 184 0 185 0 3 -712z m706 -1628 c123 -25 202 -56 288 -113 86 -57 104 -72
104 -83 -1 -5 -61 -72 -135 -149 l-134 -140 -31 37 c-37 44 -147 102 -227 119
-33 6 -94 9 -143 6 -142 -8 -245 -61 -292 -150 -31 -59 -31 -165 0 -224 26
-49 113 -110 217 -151 l70 -27 -325 -3 c-362 -3 -338 -7 -361 68 -17 55 -23
267 -9 333 40 196 221 378 446 451 152 49 367 60 532 26z m-2872 -55 c438 -76
733 -342 836 -752 19 -75 22 -116 23 -283 0 -174 -3 -205 -24 -285 -45 -172
-133 -324 -263 -453 -117 -118 -257 -204 -423 -260 -189 -64 -196 -65 -717
-69 l-478 -4 0 1060 0 1061 479 0 c386 0 496 -3 567 -15z m3504 -1065 l0 -160
-850 0 -850 0 0 160 0 160 850 0 850 0 0 -160z m-233 -267 c13 -46 9 -254 -6
-313 -32 -129 -107 -249 -208 -332 -298 -247 -884 -228 -1171 38 -40 36 -72
69 -72 73 0 4 63 68 140 141 l141 132 42 -48 c149 -169 416 -217 610 -109 55
31 93 74 120 134 15 35 18 59 15 116 -5 79 -21 112 -77 162 l-36 33 247 0 248
0 7 -27z"/>
<path d="M670 1378 l0 -721 219 6 c326 9 498 51 648 157 125 87 208 207 249
360 27 98 24 328 -4 433 -71 258 -240 408 -530 467 -84 17 -138 20 -341 20
l-241 0 0 -722z"/>
</g>
</svg>
